<mxfile host="Electron" modified="2023-11-26T04:12:54.571Z" agent="Mozilla/5.0 (Windows NT 10.0; Win64; x64) AppleWebKit/537.36 (KHTML, like Gecko) draw.io/22.1.2 Chrome/114.0.5735.289 Electron/25.9.4 Safari/537.36" etag="ZehfnB59B_8SGycFqCJY" version="22.1.2" type="device">
  <diagram name="Page-1" id="qB7rgnWT7f_RbwgGEuMo">
    <mxGraphModel dx="1104" dy="508" grid="1" gridSize="10" guides="1" tooltips="1" connect="1" arrows="1" fold="1" page="1" pageScale="1" pageWidth="850" pageHeight="1100" math="0" shadow="0">
      <root>
        <mxCell id="0" />
        <mxCell id="1" parent="0" />
        <mxCell id="tVHJ0tNOioz3t7MRQATq-15" value="" style="edgeStyle=orthogonalEdgeStyle;rounded=0;orthogonalLoop=1;jettySize=auto;html=1;" parent="1" source="tVHJ0tNOioz3t7MRQATq-1" edge="1">
          <mxGeometry relative="1" as="geometry">
            <mxPoint x="190" y="220" as="targetPoint" />
          </mxGeometry>
        </mxCell>
        <mxCell id="tVHJ0tNOioz3t7MRQATq-1" value="start" style="ellipse;whiteSpace=wrap;html=1;" parent="1" vertex="1">
          <mxGeometry y="180" width="120" height="80" as="geometry" />
        </mxCell>
        <mxCell id="tVHJ0tNOioz3t7MRQATq-19" value="" style="edgeStyle=orthogonalEdgeStyle;rounded=0;orthogonalLoop=1;jettySize=auto;html=1;" parent="1" source="tVHJ0tNOioz3t7MRQATq-16" target="tVHJ0tNOioz3t7MRQATq-18" edge="1">
          <mxGeometry relative="1" as="geometry" />
        </mxCell>
        <mxCell id="tVHJ0tNOioz3t7MRQATq-16" value="input a,b,c" style="shape=parallelogram;perimeter=parallelogramPerimeter;whiteSpace=wrap;html=1;fixedSize=1;" parent="1" vertex="1">
          <mxGeometry x="180" y="190" width="120" height="60" as="geometry" />
        </mxCell>
        <mxCell id="tVHJ0tNOioz3t7MRQATq-22" value="" style="edgeStyle=orthogonalEdgeStyle;rounded=0;orthogonalLoop=1;jettySize=auto;html=1;" parent="1" source="tVHJ0tNOioz3t7MRQATq-17" target="tVHJ0tNOioz3t7MRQATq-21" edge="1">
          <mxGeometry relative="1" as="geometry" />
        </mxCell>
        <mxCell id="tVHJ0tNOioz3t7MRQATq-17" value="devide(a,b)" style="rhombus;whiteSpace=wrap;html=1;" parent="1" vertex="1">
          <mxGeometry x="520" y="180" width="80" height="80" as="geometry" />
        </mxCell>
        <mxCell id="tVHJ0tNOioz3t7MRQATq-20" value="" style="edgeStyle=orthogonalEdgeStyle;rounded=0;orthogonalLoop=1;jettySize=auto;html=1;" parent="1" source="tVHJ0tNOioz3t7MRQATq-18" target="tVHJ0tNOioz3t7MRQATq-17" edge="1">
          <mxGeometry relative="1" as="geometry" />
        </mxCell>
        <mxCell id="tVHJ0tNOioz3t7MRQATq-18" value="output a + b" style="shape=parallelogram;perimeter=parallelogramPerimeter;whiteSpace=wrap;html=1;fixedSize=1;" parent="1" vertex="1">
          <mxGeometry x="360" y="190" width="120" height="60" as="geometry" />
        </mxCell>
        <mxCell id="tVHJ0tNOioz3t7MRQATq-45" value="" style="edgeStyle=orthogonalEdgeStyle;rounded=0;orthogonalLoop=1;jettySize=auto;html=1;" parent="1" source="tVHJ0tNOioz3t7MRQATq-21" target="tVHJ0tNOioz3t7MRQATq-31" edge="1">
          <mxGeometry relative="1" as="geometry" />
        </mxCell>
        <mxCell id="tVHJ0tNOioz3t7MRQATq-21" value="output a - b" style="shape=parallelogram;perimeter=parallelogramPerimeter;whiteSpace=wrap;html=1;fixedSize=1;" parent="1" vertex="1">
          <mxGeometry x="650" y="190" width="120" height="60" as="geometry" />
        </mxCell>
        <mxCell id="tVHJ0tNOioz3t7MRQATq-27" value="" style="edgeStyle=orthogonalEdgeStyle;rounded=0;orthogonalLoop=1;jettySize=auto;html=1;" parent="1" source="tVHJ0tNOioz3t7MRQATq-29" target="tVHJ0tNOioz3t7MRQATq-32" edge="1">
          <mxGeometry relative="1" as="geometry" />
        </mxCell>
        <mxCell id="tVHJ0tNOioz3t7MRQATq-29" value="devide(a,c)" style="rhombus;whiteSpace=wrap;html=1;" parent="1" vertex="1">
          <mxGeometry x="980" y="180" width="80" height="80" as="geometry" />
        </mxCell>
        <mxCell id="tVHJ0tNOioz3t7MRQATq-30" value="" style="edgeStyle=orthogonalEdgeStyle;rounded=0;orthogonalLoop=1;jettySize=auto;html=1;" parent="1" source="tVHJ0tNOioz3t7MRQATq-31" target="tVHJ0tNOioz3t7MRQATq-29" edge="1">
          <mxGeometry relative="1" as="geometry" />
        </mxCell>
        <mxCell id="tVHJ0tNOioz3t7MRQATq-31" value="output b + c" style="shape=parallelogram;perimeter=parallelogramPerimeter;whiteSpace=wrap;html=1;fixedSize=1;" parent="1" vertex="1">
          <mxGeometry x="820" y="190" width="120" height="60" as="geometry" />
        </mxCell>
        <mxCell id="tVHJ0tNOioz3t7MRQATq-46" value="" style="edgeStyle=orthogonalEdgeStyle;rounded=0;orthogonalLoop=1;jettySize=auto;html=1;" parent="1" source="tVHJ0tNOioz3t7MRQATq-32" target="tVHJ0tNOioz3t7MRQATq-40" edge="1">
          <mxGeometry relative="1" as="geometry" />
        </mxCell>
        <mxCell id="tVHJ0tNOioz3t7MRQATq-32" value="output b - c&amp;nbsp;" style="shape=parallelogram;perimeter=parallelogramPerimeter;whiteSpace=wrap;html=1;fixedSize=1;" parent="1" vertex="1">
          <mxGeometry x="1120" y="190" width="120" height="60" as="geometry" />
        </mxCell>
        <mxCell id="tVHJ0tNOioz3t7MRQATq-36" value="" style="edgeStyle=orthogonalEdgeStyle;rounded=0;orthogonalLoop=1;jettySize=auto;html=1;" parent="1" source="tVHJ0tNOioz3t7MRQATq-38" target="tVHJ0tNOioz3t7MRQATq-41" edge="1">
          <mxGeometry relative="1" as="geometry" />
        </mxCell>
        <mxCell id="tVHJ0tNOioz3t7MRQATq-38" value="devide(b,c)" style="rhombus;whiteSpace=wrap;html=1;" parent="1" vertex="1">
          <mxGeometry x="1470" y="180" width="80" height="80" as="geometry" />
        </mxCell>
        <mxCell id="tVHJ0tNOioz3t7MRQATq-39" value="" style="edgeStyle=orthogonalEdgeStyle;rounded=0;orthogonalLoop=1;jettySize=auto;html=1;" parent="1" source="tVHJ0tNOioz3t7MRQATq-40" target="tVHJ0tNOioz3t7MRQATq-38" edge="1">
          <mxGeometry relative="1" as="geometry" />
        </mxCell>
        <mxCell id="tVHJ0tNOioz3t7MRQATq-40" value="output a + c" style="shape=parallelogram;perimeter=parallelogramPerimeter;whiteSpace=wrap;html=1;fixedSize=1;" parent="1" vertex="1">
          <mxGeometry x="1310" y="190" width="120" height="60" as="geometry" />
        </mxCell>
        <mxCell id="tVHJ0tNOioz3t7MRQATq-41" value="output a - c" style="shape=parallelogram;perimeter=parallelogramPerimeter;whiteSpace=wrap;html=1;fixedSize=1;" parent="1" vertex="1">
          <mxGeometry x="1610" y="190" width="120" height="60" as="geometry" />
        </mxCell>
      </root>
    </mxGraphModel>
  </diagram>
</mxfile>
